<?xml version="1.0" standalone="no"?>
<!DOCTYPE svg PUBLIC "-//W3C//DTD SVG 20010904//EN"
 "http://www.w3.org/TR/2001/REC-SVG-20010904/DTD/svg10.dtd">
<svg version="1.0" xmlns="http://www.w3.org/2000/svg"
 width="340.000000pt" height="340.000000pt" viewBox="0 0 340.000000 340.000000"
 preserveAspectRatio="xMidYMid meet">
<metadata>
Created by potrace 1.11, written by Peter Selinger 2001-2013
</metadata>
<g transform="translate(0.000000,340.000000) scale(0.100000,-0.100000)"
fill="#000000" stroke="none">
<path d="M1510 3344 c-14 -2 -70 -11 -124 -20 -55 -9 -106 -19 -115 -24 -9 -5
-54 -20 -101 -35 -154 -49 -358 -159 -491 -265 -67 -53 -210 -195 -263 -261
-156 -192 -258 -401 -328 -669 l-33 -125 0 -260 c0 -252 1 -264 28 -370 40
-155 71 -245 127 -360 58 -119 188 -321 199 -309 5 5 54 97 109 204 55 107
140 274 189 370 50 96 143 279 208 405 114 222 190 368 213 410 6 11 17 34 25
50 25 52 210 409 304 585 33 63 89 169 123 235 66 127 110 205 115 205 4 0 82
-135 133 -230 19 -36 63 -117 97 -180 35 -63 106 -194 158 -290 52 -96 114
-209 137 -250 27 -49 39 -80 33 -89 -5 -7 -44 -26 -88 -42 -69 -25 -120 -46
-185 -79 -8 -4 -39 -13 -68 -20 -41 -9 -56 -10 -67 0 -19 15 -19 10 -1 -25 8
-14 15 -22 17 -17 2 5 19 12 37 15 30 6 32 5 18 -8 -8 -9 -21 -14 -27 -13 -7
2 -14 -6 -16 -17 -2 -11 -1 -16 4 -10 4 6 22 11 38 13 20 2 26 0 17 -6 -24
-16 59 -23 89 -8 15 7 87 33 161 56 73 23 171 60 218 83 100 47 252 140 291
176 15 14 54 49 86 76 32 28 92 86 134 129 45 47 81 76 88 72 16 -10 14 -264
-4 -417 -62 -532 -237 -939 -537 -1246 -138 -142 -314 -267 -485 -344 -37 -17
-77 -34 -88 -39 -50 -23 -227 -80 -295 -95 -196 -43 -510 -79 -627 -72 -40 2
-73 1 -73 -3 0 -6 88 -49 195 -96 79 -34 169 -61 305 -90 134 -29 477 -27 629
4 62 13 130 29 150 37 20 7 74 28 121 45 47 18 112 46 145 63 93 47 245 150
245 166 0 11 -25 65 -71 154 -53 101 -70 140 -66 150 3 7 35 48 72 92 164 197
209 245 219 235 5 -5 46 -80 91 -165 l82 -157 21 34 c12 18 40 62 63 98 102
159 190 384 224 570 11 57 19 167 22 275 4 151 1 201 -16 310 -66 407 -270
761 -596 1031 -151 126 -388 252 -555 294 -25 7 -49 16 -55 20 -27 21 -210 43
-390 45 -104 2 -201 1 -215 -1z"/>
<path d="M2881 2072 c-36 -94 -173 -379 -218 -453 -123 -201 -307 -420 -422
-501 -24 -17 -52 -39 -61 -48 -48 -48 -200 -128 -325 -171 -127 -43 -193 -56
-326 -65 -116 -7 -117 -6 -130 17 -18 35 -24 263 -9 357 7 42 13 86 15 97 6
48 91 221 120 245 23 19 18 32 -6 18 -18 -11 -23 -11 -26 0 -4 10 -9 9 -24 -4
-18 -16 -19 -16 -19 0 0 9 -4 14 -10 11 -6 -3 -10 4 -9 17 0 13 3 17 6 10 5
-13 23 -7 23 9 0 6 -4 7 -10 4 -14 -9 -13 18 2 33 6 6 9 14 6 18 -6 6 -20 -19
-91 -166 -21 -41 -44 -86 -52 -100 -8 -14 -21 -41 -30 -61 -9 -19 -97 -196
-195 -393 -99 -197 -180 -362 -180 -365 0 -4 46 -16 102 -25 82 -15 130 -17
243 -12 192 9 271 21 405 62 63 20 123 38 133 41 39 11 205 98 275 144 171
113 358 302 474 478 61 92 145 243 189 337 40 88 126 312 149 389 36 123 47
165 41 165 -3 0 -21 -39 -40 -88z m-1447 -528 c3 -8 2 -12 -4 -9 -6 3 -10 10
-10 16 0 14 7 11 14 -7z m56 -9 c0 -8 -4 -15 -10 -15 -5 0 -10 -12 -10 -27 0
-14 -3 -24 -6 -20 -9 9 5 77 16 77 6 0 10 -7 10 -15z"/>
<path d="M1680 2123 c-22 -27 -38 -58 -60 -116 l-20 -52 20 24 c11 13 20 32
20 42 0 10 5 19 10 19 6 0 10 8 10 17 0 9 3 14 6 10 3 -3 0 -22 -7 -41 -12
-32 -11 -38 5 -54 18 -16 18 -16 13 5 -4 20 -2 22 19 17 15 -4 24 -2 24 5 0 6
9 11 21 11 17 0 19 -5 16 -28 -4 -23 -1 -28 17 -29 11 -1 15 1 9 4 -7 3 -13
14 -13 26 0 22 1 22 19 -2 11 -15 18 -36 16 -52 -2 -17 2 -29 10 -33 10 -4 13
3 11 27 -2 38 -26 85 -55 111 -12 11 -21 24 -21 30 0 7 -12 27 -28 45 -26 31
-28 32 -42 14z m60 -66 c0 -6 -9 -1 -20 11 -11 12 -20 24 -20 28 0 4 9 -1 20
-11 11 -10 20 -23 20 -28z m-36 -2 c3 -8 1 -15 -4 -15 -6 0 -10 7 -10 15 0 8
2 15 4 15 2 0 6 -7 10 -15z"/>
<path d="M1628 1953 c7 -3 16 -2 19 1 4 3 -2 6 -13 5 -11 0 -14 -3 -6 -6z"/>
<path d="M1580 1936 c-6 -9 -10 -21 -8 -28 3 -8 9 -4 17 10 15 28 9 39 -9 18z"/>
<path d="M1550 1876 c0 -9 5 -16 10 -16 6 0 10 4 10 9 0 6 -4 13 -10 16 -5 3
-10 -1 -10 -9z"/>
<path d="M1886 1841 c-5 -7 0 -9 11 -5 16 5 16 4 -1 -10 -11 -9 -27 -16 -37
-16 -9 0 -22 -7 -29 -15 -11 -13 -8 -13 26 -1 66 24 110 45 94 46 -8 0 -25 3
-36 6 -12 3 -25 1 -28 -5z"/>
<path d="M1492 1750 c-7 -11 -12 -25 -12 -32 1 -7 8 0 16 15 18 33 14 46 -4
17z"/>
<path d="M1506 1704 c-8 -20 -4 -25 11 -16 7 4 9 13 4 21 -6 10 -10 9 -15 -5z"/>
</g>
</svg>
